<?xml version="1.0" encoding="UTF-8" standalone="no"?>
<!-- Created with Inkscape (http://www.inkscape.org/) -->

<svg
   xmlns:dc="http://purl.org/dc/elements/1.1/"
   xmlns:cc="http://creativecommons.org/ns#"
   xmlns:rdf="http://www.w3.org/1999/02/22-rdf-syntax-ns#"
   xmlns:svg="http://www.w3.org/2000/svg"
   xmlns="http://www.w3.org/2000/svg"
   version="1.1"
   width="598"
   height="60"
   viewBox="0 0 598 60"
   id="Layer_1"
   xml:space="preserve"><metadata
     id="metadata3158"><rdf:RDF><cc:Work
         rdf:about=""><dc:format>image/svg+xml</dc:format><dc:type
           rdf:resource="http://purl.org/dc/dcmitype/StillImage" /><dc:title></dc:title></cc:Work></rdf:RDF></metadata><defs
     id="defs3156" /><g
     id="g3110"><path
       d="m 18,36 v 6 h 6 v -6 h -6 z m 4,4 h -2 v -2 h 2 v 2 z"
       id="path3112"
       style="fill:#464646" /><path
       d="m 36,18 v 6 h 6 v -6 h -6 z m 4,4 h -2 v -2 h 2 v 2 z"
       id="path3114"
       style="fill:#464646" /><polygon
       points="23.142,39.145 20.857,36.854 36.857,20.857 39.142,23.142 "
       id="polygon3116"
       style="fill:#464646" /></g><polygon
     points="97.904,39.396 83.07,42 76,28.773 86.463,18 100,24.565 "
     id="polygon3118"
     style="fill:#464646" /><rect
     width="20"
     height="20"
     x="140"
     y="20"
     id="rect3120"
     style="fill:#464646" /><path
     d="m 221,30 c 0,6.078 -4.926,11 -11,11 -6.074,0 -11,-4.922 -11,-11 0,-6.074 4.926,-11 11,-11 6.074,0 11,4.926 11,11 z"
     id="path3122"
     style="fill:#464646" /><path
     d="m 270,19 c -4.971,0 -9,4.029 -9,9 0,4.971 5.001,12 9,14 4.001,-2 9,-9.029 9,-14 0,-4.971 -4.029,-9 -9,-9 z m 0,12.5 c -2.484,0 -4.5,-2.014 -4.5,-4.5 0,-2.484 2.016,-4.5 4.5,-4.5 2.485,0 4.5,2.016 4.5,4.5 0,2.486 -2.015,4.5 -4.5,4.5 z"
     id="path3124"
     style="fill:#464646" /><g
     id="g3126"><path
       d="m 337,30.156 v 0.407 5.604 c 0,1.658 -1.344,3 -3,3 h -10 c -1.655,0 -3,-1.342 -3,-3 v -10 c 0,-1.657 1.345,-3 3,-3 h 6.345 l 3.19,-3.17 H 324 c -3.313,0 -6,2.687 -6,6 v 10 c 0,3.313 2.687,6 6,6 h 10 c 3.314,0 6,-2.687 6,-6 v -8.809 l -3,2.968"
       id="path3128"
       style="fill:#464646" /><polygon
       points="338.719,24.637 329.828,33.529 327,33.529 327,30.699 335.891,21.809 "
       id="polygon3130"
       style="fill:#464646" /><rect
       width="4"
       height="4"
       x="338.69699"
       y="17.826"
       transform="matrix(-0.707,-0.7072,0.7072,-0.707,567.5655,274.7729)"
       id="rect3132"
       style="fill:#464646" /></g><g
     id="g3134"><path
       d="m 381,42 h 18 V 24 h -18 v 18 z m 14,-16 h 2 v 14 h -2 V 26 z m -4,0 h 2 v 14 h -2 V 26 z m -4,0 h 2 v 14 h -2 V 26 z m -4,0 h 2 v 14 h -2 V 26 z"
       id="path3136"
       style="fill:#464646" /><path
       d="m 395,20 v -2 -2 h -10 v 2 2 h -6 v 2 h 22 v -2 h -6 z m -2,0 h -6 v -2 h 6 v 2 z"
       id="path3138"
       style="fill:#464646" /></g><g
     id="g3140"><path
       d="m 458,30.156 v 0.407 5.604 c 0,1.658 -1.344,3 -3,3 h -10 c -1.655,0 -3,-1.342 -3,-3 v -10 c 0,-1.657 1.345,-3 3,-3 h 6.345 l 3.19,-3.17 H 445 c -3.313,0 -6,2.687 -6,6 v 10 c 0,3.313 2.687,6 6,6 h 10 c 3.314,0 6,-2.687 6,-6 v -8.809 l -3,2.968"
       id="path3142"
       style="fill:#bbbbbb" /><polygon
       points="459.719,24.637 450.828,33.529 448,33.529 448,30.699 456.891,21.809 "
       id="polygon3144"
       style="fill:#bbbbbb" /><rect
       width="4"
       height="4"
       x="459.69699"
       y="17.826"
       transform="matrix(-0.707,-0.7072,0.7072,-0.707,774.118,360.3402)"
       id="rect3146"
       style="fill:#bbbbbb" /></g><g
     id="g3148"><path
       d="m 501,42 h 18 V 24 h -18 v 18 z m 14,-16 h 2 v 14 h -2 V 26 z m -4,0 h 2 v 14 h -2 V 26 z m -4,0 h 2 v 14 h -2 V 26 z m -4,0 h 2 v 14 h -2 V 26 z"
       id="path3150"
       style="fill:#bbbbbb" /><path
       d="m 515,20 v -2 -2 h -10 v 2 2 h -6 v 2 h 22 v -2 h -6 z m -2,0 h -6 v -2 h 6 v 2 z"
       id="path3152"
       style="fill:#bbbbbb" /></g><path
     d="m 556.00002,42 h 7.63732 v -1.3211 q -0.85789,0 -1.50654,-0.220186 -0.64865,-0.220183 -1.02528,-0.760632 -0.37664,-0.540451 0.0209,-1.421185 l 1.92502,-4.683902 h 8.18135 l 1.71578,4.443702 q 0.33478,0.900751 -0.11509,1.771477 -0.44986,0.870726 -1.55885,0.870726 V 42 H 580 v -1.3211 q -0.71142,-0.02001 -1.54838,-0.860718 -0.37664,-0.380318 -0.69051,-0.840702 -0.31386,-0.460382 -0.4394,-0.740616 L 577.19617,37.976646 569.14037,18 h -1.94595 l -8.34873,20.136781 q -0.50218,0.960801 -1.08806,1.50125 -0.25109,0.240202 -0.69049,0.500417 -0.43941,0.260218 -0.75327,0.400334 L 556,40.6789 V 42 z m 7.59547,-10.42869 3.7245,-9.147622 0.96251,2.802333 2.4272,6.345289 h -7.11421 z"
     id="path8414"
     style="fill:#464646" /></svg>